# xmcd
#
# Track frame offsets:
#	150
#	46858
#	69480
#	97852
#	134557
#	165508
#	175924
#
# Disc length: 2515 seconds
#
# Revision: 0
# Processed by: cddbd v1.5.2PL0 Copyright (c) Steve Scherf et al.
# Submitted via: audiograbber 1.83.01
#
DISCID=5409d107
DTITLE=Grateful Dead - 93-12-12 San Diego Sports Arena, San Diego CA
DYEAR=1900
DGENRE=
TTITLE0=Space
TTITLE1=The Wheel
TTITLE2=All Along The Watchtower
TTITLE3=Stella Blue
TTITLE4=Around and Around
TTITLE5=Crowd and Tuning
TTITLE6=I Fought The Law
EXTD=
EXTT0=
EXTT1=
EXTT2=
EXTT3=
EXTT4=
EXTT5=
EXTT6=
PLAYORDER=
